# xmcd
#
# Track frame offsets:
#	150
#	17235
#	31113
#	42533
#	59571
#	75532
#	86327
#	100773
#	122228
#	140399
#	158540
#	174465
#	191573
#	204547
#	221631
#	236797
#	255501
#	271598
#	283089
#	297960
#	314183
#
# Disc length: 4360 seconds
#
# Revision: 1
# Processed by: cddbd v1.5.2PL0 Copyright (c) Steve Scherf et al.
# Submitted via: dBpowerAMP V4.0
#
DISCID=31110615
DTITLE=Various Artist - Hott Urban Volume 43 Can
DYEAR=2018
DGENRE=Urban
TTITLE0=Kodak Black ft. Travis Scott - Zeze
TTITLE1=Cardi B - Money
TTITLE2=Travis Scott - Yosemite
TTITLE3=Quavo ft. 21 Savage - Pass Out
TTITLE4=Q Money - Neat
TTITLE5=Future and Juice Wrld - Fine China
TTITLE6=Pardison Fontaine ft. Cardi B - Backin' it Up
TTITLE7=YG ft. Quavo - Slay
TTITLE8=6lack ft. J. Cole - Pretty Little Fears
TTITLE9=Davido - Fall
TTITLE10=Bad Bunny ft. Drake - Mia
TTITLE11=Mariah Carey - With You
TTITLE12=Takeoff - Last Memory
TTITLE13=Russ - Missin' You Crazy
TTITLE14=Youngboy Nba ft. Kevin Gates And Quando Rondo - I Am Who They Say I Am
TTITLE15=Justine Skye ft. Arin Ray - Build
TTITLE16=Plies ft. Kevin Gates - All Thee Above
TTITLE17=City Girls - Twerk
TTITLE18=Tyga ft. Nicki Minaj - Dip [Remix]
TTITLE19=Lil Duval ft. Snoop Dogg And Ball Greezy - Smile (Best Life) [Super Sqeaky Clean Edit]
TTITLE20=Dreamdoll - Everything Nice
EXTD=
EXTT0=
EXTT1=
EXTT2=
EXTT3=
EXTT4=
EXTT5=
EXTT6=
EXTT7=
EXTT8=
EXTT9=
EXTT10=
EXTT11=
EXTT12=
EXTT13=
EXTT14=
EXTT15=
EXTT16=
EXTT17=
EXTT18=
EXTT19=
EXTT20=
PLAYORDER=
